<?xml version="1.0" encoding="UTF-8" standalone="no"?>
<!-- Created with Inkscape (http://www.inkscape.org/) -->

<svg
   width="330.27548"
   height="300"
   viewBox="0 0 87.38539 79.375001"
   version="1.1"
   id="svg5"
   xml:space="preserve"
   sodipodi:docname="compass.svg"
   inkscape:version="1.2.1 (9c6d41e410, 2022-07-14)"
   xmlns:inkscape="http://www.inkscape.org/namespaces/inkscape"
   xmlns:sodipodi="http://sodipodi.sourceforge.net/DTD/sodipodi-0.dtd"
   xmlns="http://www.w3.org/2000/svg"
   xmlns:svg="http://www.w3.org/2000/svg"><sodipodi:namedview
     id="namedview7"
     pagecolor="#ffffff"
     bordercolor="#000000"
     borderopacity="0.25"
     inkscape:showpageshadow="2"
     inkscape:pageopacity="0.0"
     inkscape:pagecheckerboard="0"
     inkscape:deskcolor="#d1d1d1"
     inkscape:document-units="mm"
     showgrid="false"
     inkscape:zoom="2.1399932"
     inkscape:cx="88.551682"
     inkscape:cy="174.76691"
     inkscape:window-width="1920"
     inkscape:window-height="1017"
     inkscape:window-x="-8"
     inkscape:window-y="-8"
     inkscape:window-maximized="1"
     inkscape:current-layer="layer1" /><defs
     id="defs2" /><g
     inkscape:label="Layer 1"
     inkscape:groupmode="layer"
     id="layer1"
     transform="translate(0.10128581,2.8380697)"><path
       id="path1126"
       style="display:inline;fill:#800000;stroke:none;stroke-width:0.487357;stroke-linecap:round;stroke-linejoin:round;paint-order:markers fill stroke"
       d="M 72.965462,39.847832 A 21.033913,34.821048 67.546004 0 1 28.185834,60.211232 21.033913,34.821048 67.546004 0 1 14.217354,33.851029 21.033913,34.821048 67.546004 0 1 58.996982,13.487627 21.033913,34.821048 67.546004 0 1 72.965462,39.847832 Z" /><path
       id="circle1128"
       style="display:inline;fill:#ffffff;stroke:none;stroke-width:0.437414;stroke-linecap:round;stroke-linejoin:round;paint-order:markers fill stroke"
       d="m 53.699457,15.710793 a 18.878394,31.252648 67.546004 0 0 -15.371705,2.94283 l 1.966006,3.709659 a 14.725984,24.37845 67.546004 0 1 10.670967,-1.993563 l 3.068259,-4.652275 a 18.878394,31.252648 67.546004 0 0 -0.333527,-0.0068 z m 6.880541,0.674656 -3.068261,4.653226 a 14.725984,24.37845 67.546004 0 1 6.861537,3.782824 l 6.301857,-2.866813 A 18.878394,31.252648 67.546004 0 0 60.579998,16.385449 Z M 31.270472,21.862515 A 18.878394,31.252648 67.546004 0 0 19.15612,31.57661 l 5.851453,0.597687 a 14.725984,24.37845 67.546004 0 1 8.228903,-6.601175 z m 41.60632,4.24748 -6.302809,2.865864 a 14.725984,24.37845 67.546004 0 1 -0.965422,7.342346 l 5.850503,0.59769 a 18.878394,31.252648 67.546004 0 0 1.417728,-10.8059 z M 15.723927,36.782863 a 18.878394,31.252648 67.546004 0 0 -1.417728,10.806849 l 6.300907,-2.865861 a 14.725984,24.37845 67.546004 0 1 0.967324,-7.343299 z m 46.452439,4.742547 a 14.725984,24.37845 67.546004 0 1 -8.229853,6.602126 l 1.968856,3.71726 A 18.878394,31.252648 67.546004 0 0 68.03352,42.1231 Z m -39.368552,7.3528 -6.300906,2.864914 a 18.878394,31.252648 67.546004 0 0 10.096083,5.571136 l 3.068261,-4.652275 A 14.725984,24.37845 67.546004 0 1 22.807814,48.87821 Z m 24.081419,2.459168 A 14.725984,24.37845 67.546004 0 1 36.217315,53.33094 l -3.071111,4.657026 a 18.878394,31.252648 67.546004 0 0 15.712834,-2.934278 z" /><path
       id="path1274"
       style="display:inline;fill:#800000;stroke:none;stroke-width:0.590144;stroke-linecap:round;stroke-linejoin:round;paint-order:markers fill stroke"
       d="M 54.336255,-1.9652463 46.23281,27.31255 a 8.6302469,14.287129 67.546004 0 1 3.527345,-0.05957 z M 71.95347,13.719837 53.934628,28.414717 a 8.6302469,14.287129 67.546004 0 1 1.463735,1.021021 z m -45.329583,5.088665 10.80391,11.486986 a 8.6302469,14.287129 67.546004 0 1 2.491946,-1.261379 z m 59.699872,13.244497 -29.397976,3.300339 a 8.6302469,14.287129 67.546004 0 1 -1.281924,2.72717 8.6302469,14.287129 67.546004 0 1 -0.270149,0.392384 z M 31.81527,35.228022 0.85905671,41.647916 30.257033,38.347576 a 8.6302469,14.287129 67.546004 0 1 1.281924,-2.728198 8.6302469,14.287129 67.546004 0 1 0.276313,-0.391356 z m 17.938723,8.176376 A 8.6302469,14.287129 67.546004 0 1 47.26102,44.666806 L 60.556875,54.89344 Z M 31.784455,44.264149 15.228319,59.982103 33.24819,45.285169 a 8.6302469,14.287129 67.546004 0 1 -1.463735,-1.02102 z m 9.166579,2.125243 a 8.6302469,14.287129 67.546004 0 1 -3.528373,0.06061 l -4.574044,29.21411 z" /><path
       id="path1339"
       style="display:inline;fill:#ffffff;stroke:none;stroke-width:0.590144;stroke-linecap:round;stroke-linejoin:round;paint-order:markers fill stroke"
       d="M 54.335229,-1.9652463 42.495918,28.10348 a 8.6302469,14.287129 67.546004 0 1 3.730728,-0.778604 z M 71.95347,13.718811 51.986062,27.664874 a 8.6302469,14.287129 67.546004 0 1 1.944455,0.751897 z m -45.328557,5.088664 8.667371,12.932233 a 8.6302469,14.287129 67.546004 0 1 2.139622,-1.441139 z m 59.698846,13.244496 -29.230544,0.342053 a 8.6302469,14.287129 67.546004 0 1 -0.185912,2.96034 z M 30.274495,38.344493 0.85905671,41.646888 30.088575,41.305863 a 8.6302469,14.287129 67.546004 0 1 0.185912,-2.96137 z m 21.623228,3.626984 a 8.6302469,14.287129 67.546004 0 1 -2.144758,1.430866 l 10.80391,11.490069 z M 33.251271,45.281061 15.228319,59.981075 35.195729,46.032958 a 8.6302469,14.287129 67.546004 0 1 -1.944458,-0.751897 z m 11.430493,0.327672 a 8.6302469,14.287129 67.546004 0 1 -3.731756,0.779631 l -8.103447,29.275741 z" /></g></svg>
