<svg width="330.28" height="300" version="1.1" viewBox="0 0 87.385 79.375" xmlns="http://www.w3.org/2000/svg">
 <g transform="translate(.10129 2.8381)">
  <path d="m54.335-1.9653-6.2317 15.827a21.034 34.821 67.546 0 0-19.104 6.7737l-2.3683-1.8211-0.006202-0.006718 0.002584 0.003618-0.003617-0.002584 0.006201 0.006201 1.542 2.3012a21.034 34.821 67.546 0 0-13.955 12.735 21.034 34.821 67.546 0 0-2.79 5.6053l-10.557 2.1895-0.010852 0.001033h0.0051676l-0.0051676 0.001034 0.010335-0.001034 9.9642-0.11627a21.034 34.821 67.546 0 0 7.2626 15.729l-2.8598 2.7151-0.003617 0.0031-0.004134 0.004134 0.008785-0.007234 3.4458-2.4071a21.034 34.821 67.546 0 0 9.5028 2.6438 21.034 34.821 67.546 0 0 7.0709 0.07028l-2.4055 15.365-0.004651 0.017053 0.003617-0.008785-0.00155 0.008785 0.004651-0.01757 6.2239-15.805a21.034 34.821 67.546 0 0 19.11-6.7706l2.3699 1.8226-1.9451-2.0686a21.034 34.821 67.546 0 0 5.17e-4 -5.17e-4l1.9446 2.0681-1.5441-2.3043a21.034 34.821 67.546 0 0 13.953-12.74 21.034 34.821 67.546 0 0 2.789-5.6022l10.569-2.1926-10.233 1.1488a21.034 34.821 67.546 0 0 5.17e-4 -0.001034l10.233-1.1488-9.9751 0.11679a21.034 34.821 67.546 0 0-7.2605-15.729l2.8649-2.7197-3.1512 2.5699a21.034 34.821 67.546 0 0-5.17e-4 -5.17e-4l3.1517-2.5704-3.4541 2.4123a21.034 34.821 67.546 0 0-9.5023-2.6438 21.034 34.821 67.546 0 0-4.1434-0.19069 21.034 34.821 67.546 0 0-2.928 0.13229l2.4107-15.394-4.3098 15.571a21.034 34.821 67.546 0 0-0.002067 5.17e-4l4.3108-15.572zm-0.63562 17.676a18.878 31.253 67.546 0 1 0.33331 0.006718l-3.068 4.6524a14.726 24.378 67.546 0 0-0.12764 0.006718l0.71779-4.5842a18.878 31.253 67.546 0 1 2.1446-0.081649zm-4.3357 0.28215a18.878 31.253 67.546 0 1 0.002067 0l-1.2707 4.5904a14.726 24.378 67.546 0 0-0.002584 5.16e-4l1.2712-4.5909zm-2.2247 0.31781-1.8552 4.7119a14.726 24.378 67.546 0 0-4.9904 1.341l-1.9658-3.7099a18.878 31.253 67.546 0 1 8.8113-2.343zm13.441 0.074931a18.878 31.253 67.546 0 1 5.0726 1.7343l-5.4679 3.8194a14.726 24.378 67.546 0 0-2.6727-0.90072l3.068-4.6529zm5.6338 2.0143a18.878 31.253 67.546 0 1 5.17e-4 5.17e-4l-4.9718 4.055a14.726 24.378 67.546 0 0-0.001034-5.17e-4l4.9723-4.055zm0.50953 0.28525a18.878 31.253 67.546 0 1 3.9522 3.2696l-6.3019 2.867a14.726 24.378 67.546 0 0-2.2019-1.8159l4.5517-4.3207zm-35.453 3.1776 0.46457 0.87695-0.85059-0.65422a18.878 31.253 67.546 0 1 0.38602-0.22273zm-1.8707 1.0847 2.3637 3.5269a14.726 24.378 67.546 0 0-6.7557 5.6999l-5.8518-0.5979a18.878 31.253 67.546 0 1 10.244-8.6289zm43.477 3.1626a18.878 31.253 67.546 0 1 0.1912 6.0968l-6.3335 0.074414a14.726 24.378 67.546 0 0-0.1602-3.3052l6.3025-2.866zm-24.621 1.0532a8.6159 14.042 66.472 0 1 3.1946 0.36328 8.6159 14.042 66.472 0 1 2.9032 11.95 8.6159 14.042 66.472 0 1-18.621 6.6957 8.6159 14.042 66.472 0 1-2.9032-11.95 8.6159 14.042 66.472 0 1 15.426-7.059zm24.487 6.4136a18.878 31.253 67.546 0 1 0 0.001033l-6.411 0.71985a14.726 24.378 67.546 0 0 5.16e-4 -0.00155l6.4105-0.71934zm-0.45372 1.3875a18.878 31.253 67.546 0 1-0.82941 1.9518l-5.748-0.58756 6.5774-1.3643zm-56.565 1.8185 5.7573 0.58859-6.5877 1.3658a18.878 31.253 67.546 0 1 0.83044-1.9544zm4.7237 4.6359a14.726 24.378 67.546 0 0 0.15916 3.3052l-6.3009 2.866a18.878 31.253 67.546 0 1-0.1912-6.0973l6.3329-0.073898zm41.729 0.10697 5.857 0.59738a18.878 31.253 67.546 0 1-10.246 8.6367l-2.3678-3.5331a14.726 24.378 67.546 0 0 6.7572-5.7009zm-8.0724 6.505a14.726 24.378 67.546 0 0 5.17e-4 0l2.9621 3.1497a18.878 31.253 67.546 0 1-5.17e-4 5.16e-4l-2.9621-3.1502zm-31.296 0.84749a14.726 24.378 67.546 0 0 2.203 1.8164l-4.5501 4.3202a18.878 31.253 67.546 0 1-3.9538-3.2716l6.3009-2.8649zm32.641 2.0867 0.85369 0.65629a18.878 31.253 67.546 0 1-0.38757 0.22376l-0.46612-0.88005zm-8.5602 0.37259 1.9699 3.7161a18.878 31.253 67.546 0 1-8.8175 2.3389l1.8562-4.7139a14.726 24.378 67.546 0 0 4.9914-1.341zm-19.893 0.42323a14.726 24.378 67.546 0 0 2.6753 0.90124l-3.068 4.6524a18.878 31.253 67.546 0 1-5.0731-1.7353l5.4658-3.8184zm9.3503 1.5637-0.71675 4.5785a18.878 31.253 67.546 0 1-2.4831 0.085266l3.0711-4.6571a14.726 24.378 67.546 0 0 0.12867-0.006718z" style="paint-order:markers fill stroke"/>
 </g>
</svg>
