<svg width="500" height="171" version="1.1" viewBox="0 0 132.29 45.244" xmlns="http://www.w3.org/2000/svg">
 <path d="m36.175 18.198a10.582 17.518 67.546 0 1-22.528 10.245 10.582 17.518 67.546 0 1-7.0274-13.262 10.582 17.518 67.546 0 1 22.528-10.245 10.582 17.518 67.546 0 1 7.0274 13.262z" fill="#820000"/>
 <path d="m26.482 6.0548a9.4975 15.723 67.546 0 0-7.7333 1.4805l0.98908 1.8663a7.4085 12.265 67.546 0 1 5.3684-1.0029l1.5436-2.3405a9.4975 15.723 67.546 0 0-0.16779-0.00335zm3.4615 0.33941-1.5436 2.341a7.4085 12.265 67.546 0 1 3.452 1.9031l3.1704-1.4423a9.4975 15.723 67.546 0 0-5.0787-2.8018zm-14.745 2.7555a9.4975 15.723 67.546 0 0-6.0946 4.8871l2.9438 0.30069a7.4085 12.265 67.546 0 1 4.1399-3.321zm20.932 2.1369-3.1709 1.4418a7.4085 12.265 67.546 0 1-0.48569 3.6939l2.9433 0.30069a9.4975 15.723 67.546 0 0 0.71324-5.4363zm-28.753 5.3694a9.4975 15.723 67.546 0 0-0.71324 5.4368l3.1699-1.4418a7.4085 12.265 67.546 0 1 0.48665-3.6943zm23.37 2.3859a7.4085 12.265 67.546 0 1-4.1403 3.3215l0.99051 1.8701a9.4975 15.723 67.546 0 0 6.0965-4.8909zm-19.806 3.6991-3.1699 1.4413a9.4975 15.723 67.546 0 0 5.0792 2.8028l1.5436-2.3405a7.4085 12.265 67.546 0 1-3.4529-1.9036zm12.115 1.2372a7.4085 12.265 67.546 0 1-5.3689 1.0029l-1.545 2.3429a9.4975 15.723 67.546 0 0 7.905-1.4762z" fill="#fff"/>
 <path d="m26.802-2.8381-4.0768 14.729a4.3418 7.1877 67.546 0 1 1.7746-0.029972l2.3022-14.699zm8.863 7.891-9.0651 7.3928a4.3418 7.1877 67.546 0 1 0.73639 0.51366l8.3287-7.9065zm-22.805 2.5601 5.4353 5.779a4.3418 7.1877 67.546 0 1 1.2537-0.63459l-6.689-5.1444zm30.034 6.6632-14.79 1.6604a4.3418 7.1877 67.546 0 1-0.64492 1.372 4.3418 7.1877 67.546 0 1-0.13591 0.1974l15.571-3.2298zm-27.423 1.5973-15.574 3.2298 14.79-1.6604a4.3418 7.1877 67.546 0 1 0.64492-1.3725 4.3418 7.1877 67.546 0 1 0.13901-0.19689zm9.0248 4.1134a4.3418 7.1877 67.546 0 1-1.2542 0.6351l6.689 5.1449-5.4348-5.78zm-9.0403 0.43253-8.3292 7.9075 9.0656-7.3939a4.3418 7.1877 67.546 0 1-0.73639-0.51366zm4.6116 1.0692a4.3418 7.1877 67.546 0 1-1.7751 0.030489l-2.3012 14.697 4.0762-14.728z" fill="#820000"/>
 <path d="m26.802-2.8376-5.9562 15.127a4.3418 7.1877 67.546 0 1 1.8769-0.39171l4.0793-14.736zm8.8635 7.8905-10.045 7.0161a4.3418 7.1877 67.546 0 1 0.97823 0.37827l9.0671-7.3944zm-22.804 2.5601 4.3605 6.5061a4.3418 7.1877 67.546 0 1 1.0764-0.72502l-5.4369-5.781zm30.034 6.6632-14.706 0.17208a4.3418 7.1877 67.546 0 1-0.093535 1.4893l14.799-1.6614zm-28.198 3.1657-14.799 1.6614 14.705-0.17157a4.3418 7.1877 67.546 0 1 0.093534-1.4898zm10.878 1.8247a4.3418 7.1877 67.546 0 1-1.079 0.71985l5.4353 5.7805-4.3563-6.5004zm-9.3808 1.665-9.0671 7.3954 10.045-7.0171a4.3418 7.1877 67.546 0 1-0.97824-0.37827zm5.7506 0.16485a4.3418 7.1877 67.546 0 1-1.8774 0.39222l-4.0768 14.728 5.9542-15.121z" fill="#fff"/>
 <text transform="scale(.89666 1.1152)" x="50.740181" y="18.642" fill="#000000" font-family="'BankGothic Md BT'" font-size="17.82px" stroke-linecap="round" stroke-linejoin="round" stroke-width="1.485" style="font-variant-caps:normal;font-variant-east-asian:normal;font-variant-ligatures:normal;font-variant-numeric:normal;paint-order:markers fill stroke" xml:space="preserve"><tspan x="50.740181" y="18.642" fill="#000000" font-family="'BankGothic Md BT'" font-size="17.82px" stroke-width="1.485" style="font-variant-caps:normal;font-variant-east-asian:normal;font-variant-ligatures:normal;font-variant-numeric:normal">Exceder</tspan></text>
 <text transform="scale(.87375 1.1445)" x="53.634624" y="23.529253" fill="#000000" font-family="'BankGothic Md BT'" font-size="6.4255px" stroke-linecap="round" stroke-linejoin="round" stroke-width=".53546" style="font-variant-caps:normal;font-variant-east-asian:normal;font-variant-ligatures:normal;font-variant-numeric:normal;paint-order:markers fill stroke" xml:space="preserve"><tspan x="53.634624" y="23.529253" stroke-width=".53546">Real Estate Advisors, LLC</tspan></text>
</svg>
