<?xml version="1.0" encoding="UTF-8" standalone="no"?>
<!-- Created with Inkscape (http://www.inkscape.org/) -->

<svg
   width="500"
   height="171"
   viewBox="0 0 132.29167 45.243751"
   version="1.1"
   id="svg5"
   xml:space="preserve"
   sodipodi:docname="logo.svg"
   inkscape:version="1.2.1 (9c6d41e410, 2022-07-14)"
   xmlns:inkscape="http://www.inkscape.org/namespaces/inkscape"
   xmlns:sodipodi="http://sodipodi.sourceforge.net/DTD/sodipodi-0.dtd"
   xmlns="http://www.w3.org/2000/svg"
   xmlns:svg="http://www.w3.org/2000/svg"><sodipodi:namedview
     id="namedview7"
     pagecolor="#ffffff"
     bordercolor="#000000"
     borderopacity="0.25"
     inkscape:showpageshadow="2"
     inkscape:pageopacity="0.0"
     inkscape:pagecheckerboard="0"
     inkscape:deskcolor="#d1d1d1"
     inkscape:document-units="mm"
     showgrid="false"
     inkscape:zoom="2.1075443"
     inkscape:cx="237.48018"
     inkscape:cy="74.494281"
     inkscape:window-width="1920"
     inkscape:window-height="1017"
     inkscape:window-x="-8"
     inkscape:window-y="-8"
     inkscape:window-maximized="1"
     inkscape:current-layer="layer1" /><defs
     id="defs2" /><g
     inkscape:label="Layer 1"
     inkscape:groupmode="layer"
     id="layer1"><path
       id="path1126"
       style="display:inline;fill:#800000;stroke:none;stroke-width:0.245184;stroke-linecap:round;stroke-linejoin:round;paint-order:markers fill stroke"
       d="M 36.174521,18.197976 A 10.581928,17.518082 67.546004 0 1 13.646388,28.442576 10.581928,17.518082 67.546004 0 1 6.6190018,15.181051 10.581928,17.518082 67.546004 0 1 29.147134,4.93645 10.581928,17.518082 67.546004 0 1 36.174521,18.197976 Z" /><path
       id="circle1128"
       style="display:inline;fill:#ffffff;stroke:none;stroke-width:0.220058;stroke-linecap:round;stroke-linejoin:round;paint-order:markers fill stroke"
       d="m 26.482085,6.0548341 a 9.4975103,15.72286 67.546004 0 0 -7.733334,1.4805054 l 0.989076,1.8662876 a 7.4084789,12.264527 67.546004 0 1 5.368445,-1.0029384 l 1.543607,-2.3405082 a 9.4975103,15.72286 67.546004 0 0 -0.167794,-0.00335 z m 3.461524,0.339412 -1.543608,2.3409863 A 7.4084789,12.264527 67.546004 0 1 31.851964,10.63833 L 35.022358,9.1960677 A 9.4975103,15.72286 67.546004 0 0 29.943609,6.3942461 Z M 15.198312,9.1496974 A 9.4975103,15.72286 67.546004 0 0 9.1037161,14.036751 l 2.9438009,0.30069 a 7.4084789,12.264527 67.546004 0 1 4.13987,-3.320978 z m 20.931677,2.1368606 -3.170873,1.441784 a 7.4084789,12.264527 67.546004 0 1 -0.485693,3.693853 l 2.943323,0.300691 a 9.4975103,15.72286 67.546004 0 0 0.713243,-5.436328 z M 7.3770177,16.655959 A 9.4975103,15.72286 67.546004 0 0 6.6637745,22.092765 L 9.8336907,20.650982 A 7.4084789,12.264527 67.546004 0 1 10.320341,16.95665 Z m 23.3697063,2.385923 a 7.4084789,12.264527 67.546004 0 1 -4.140348,3.321456 l 0.99051,1.870112 a 9.4975103,15.72286 67.546004 0 0 6.096507,-4.890877 z M 10.940843,22.740994 7.7709267,24.1823 a 9.4975103,15.72286 67.546004 0 0 5.0792273,2.802777 l 1.543608,-2.340508 a 7.4084789,12.264527 67.546004 0 1 -3.452919,-1.903575 z m 12.115094,1.23718 a 7.4084789,12.264527 67.546004 0 1 -5.368923,1.002939 l -1.545042,2.342898 a 9.4975103,15.72286 67.546004 0 0 7.904952,-1.476203 z" /><path
       id="path1274"
       style="display:inline;fill:#800000;stroke:none;stroke-width:0.296895;stroke-linecap:round;stroke-linejoin:round;paint-order:markers fill stroke"
       d="M 26.802498 -2.8380697 L 22.725745 11.891264 A 4.3417813 7.1876959 67.546004 0 1 24.500313 11.861292 L 26.802498 -2.8380697 z M 35.665523 5.0529215 L 26.600444 12.445752 A 4.3417813 7.1876959 67.546004 0 1 27.336833 12.959416 L 35.665523 5.0529215 z M 12.860714 7.612972 L 18.296041 13.391947 A 4.3417813 7.1876959 67.546004 0 1 19.549711 12.757361 L 12.860714 7.612972 z M 42.895056 14.276131 L 28.105261 15.936495 A 4.3417813 7.1876959 67.546004 0 1 27.460339 17.308504 A 4.3417813 7.1876959 67.546004 0 1 27.32443 17.505908 L 42.895056 14.276131 z M 15.472441 15.87345 L -0.10128581 19.103227 L 14.688509 17.442863 A 4.3417813 7.1876959 67.546004 0 1 15.333431 16.070337 A 4.3417813 7.1876959 67.546004 0 1 15.472441 15.87345 z M 24.497213 19.986894 A 4.3417813 7.1876959 67.546004 0 1 23.243026 20.621997 L 29.932023 25.766903 L 24.497213 19.986894 z M 15.456938 20.419425 L 7.1277303 28.326953 L 16.193327 20.933089 A 4.3417813 7.1876959 67.546004 0 1 15.456938 20.419425 z M 20.068542 21.488611 A 4.3417813 7.1876959 67.546004 0 1 18.293457 21.5191 L 15.992306 36.216394 L 20.068542 21.488611 z " /><path
       id="path1339"
       style="display:inline;fill:#ffffff;stroke:none;stroke-width:0.296895;stroke-linecap:round;stroke-linejoin:round;paint-order:markers fill stroke"
       d="M 26.801982 -2.8375529 L 20.845756 12.289689 A 4.3417813 7.1876959 67.546004 0 1 22.722644 11.897982 L 26.801982 -2.8375529 z M 35.665523 5.0529215 L 25.620142 12.069031 A 4.3417813 7.1876959 67.546004 0 1 26.598376 12.447302 L 35.665523 5.0529215 z M 12.86123 7.612972 L 17.221688 14.119035 A 4.3417813 7.1876959 67.546004 0 1 18.298108 13.394014 L 12.86123 7.612972 z M 42.895056 14.276131 L 28.189494 14.448214 A 4.3417813 7.1876959 67.546004 0 1 28.095959 15.937528 L 42.895056 14.276131 z M 14.697294 17.441829 L -0.10128581 19.103227 L 14.60376 18.931661 A 4.3417813 7.1876959 67.546004 0 1 14.697294 17.441829 z M 25.5757 19.266524 A 4.3417813 7.1876959 67.546004 0 1 24.496696 19.986377 L 29.932023 25.766903 L 25.5757 19.266524 z M 16.194877 20.931539 L 7.1277303 28.326953 L 17.173112 21.30981 A 4.3417813 7.1876959 67.546004 0 1 16.194877 20.931539 z M 21.945431 21.096387 A 4.3417813 7.1876959 67.546004 0 1 20.068026 21.488611 L 15.991272 36.216911 L 21.945431 21.096387 z " /><text
       xml:space="preserve"
       style="font-style:normal;font-variant:normal;font-weight:normal;font-stretch:normal;font-size:17.8201px;font-family:'BankGothic Md BT';-inkscape-font-specification:'BankGothic Md BT, Normal';font-variant-ligatures:normal;font-variant-caps:normal;font-variant-numeric:normal;font-variant-east-asian:normal;fill:#000000;stroke-width:1.48501;stroke-linecap:round;stroke-linejoin:round;paint-order:markers fill stroke"
       x="50.740181"
       y="18.642"
       id="text299"
       transform="scale(0.89666247,1.1152469)"><tspan
         sodipodi:role="line"
         id="tspan297"
         style="font-style:normal;font-variant:normal;font-weight:normal;font-stretch:normal;font-size:17.8201px;font-family:'BankGothic Md BT';-inkscape-font-specification:'BankGothic Md BT, Normal';font-variant-ligatures:normal;font-variant-caps:normal;font-variant-numeric:normal;font-variant-east-asian:normal;fill:#000000;stroke-width:1.48501"
         x="50.740181"
         y="18.642">Exceder</tspan></text><text
       xml:space="preserve"
       style="font-style:normal;font-variant:normal;font-weight:normal;font-stretch:normal;font-size:6.76612px;font-family:'BankGothic Md BT';-inkscape-font-specification:'BankGothic Md BT, Normal';font-variant-ligatures:normal;font-variant-caps:normal;font-variant-numeric:normal;font-variant-east-asian:normal;fill:#000000;stroke-width:0.563842;stroke-linecap:round;stroke-linejoin:round;paint-order:markers fill stroke"
       x="53.589722"
       y="23.705034"
       id="text459"
       transform="scale(0.87374911,1.1444933)"><tspan
         sodipodi:role="line"
         id="tspan457"
         style="stroke-width:0.563842"
         x="53.589722"
         y="23.705034">Real Estate Advisors</tspan></text></g></svg>
